<svg xmlns="http://www.w3.org/2000/svg" xmlns:xlink="http://www.w3.org/1999/xlink" version="1.1" id="Capa_1" x="0px" y="0px" width="62.803px" height="62.803px" viewBox="0 0 72.803 72.803" style="enable-background:new 0 0 72.803 72.803;" xml:space="preserve">

	<path d="M71.051,17.676v-1.264c0-3.312-2.691-5.622-6.141-5.013l-18.746,3.35h-4.312c-2.121,0-4.045,0.86-5.451,2.24   c-1.406-1.38-3.331-2.24-5.452-2.24H7.788C3.495,14.749,0,18.244,0,22.535v23.163c0,4.293,3.495,7.786,7.788,7.786h9.435v8.018   l11.42-8.018h2.308c2.121,0,4.045-0.86,5.452-2.24c1.406,1.38,3.33,2.24,5.451,2.24h23.162c4.293,0,7.788-3.495,7.788-7.786V22.535   C72.803,20.689,72.127,19.017,71.051,17.676z M18.39,59.256v-5.771v-2.92H7.788c-2.682,0-4.868-2.186-4.868-4.865V22.537   c0-2.684,2.186-4.865,4.868-4.865H30.95c1.513,0,2.857,0.71,3.749,1.801c0.685,0.838,1.119,1.897,1.119,3.064v0.27h-1.292   c-0.076-0.334-0.209-0.633-0.396-0.907c-0.484-0.694-1.245-1.18-2.158-1.18c-1.474,0-2.672,1.198-2.672,2.672   c0,1.474,1.199,2.67,2.672,2.67c0.867,0,1.607-0.442,2.093-1.084c0.227-0.294,0.375-0.628,0.458-1.001h1.294v5.984h-1.294   c-0.083-0.374-0.238-0.706-0.458-1.002c-0.488-0.642-1.224-1.083-2.093-1.083c-1.474,0-2.672,1.198-2.672,2.67   c0,1.471,1.199,2.669,2.672,2.669c0.867,0,1.607-0.441,2.093-1.083c0.227-0.294,0.375-0.628,0.458-1.001h1.294v6.326h-1.294   c-0.083-0.374-0.238-0.709-0.458-1.003c-0.488-0.642-1.224-1.086-2.093-1.086c-1.474,0-2.672,1.198-2.672,2.673   c0,1.474,1.199,2.669,2.672,2.669c0.867,0,1.607-0.44,2.093-1.084c0.227-0.294,0.375-0.63,0.458-1.001h1.294v6.494h-1.294   c-0.083-0.374-0.238-0.71-0.458-1.004c-0.488-0.641-1.224-1.086-2.093-1.086c-1.474,0-2.672,1.2-2.672,2.674   s1.199,2.671,2.672,2.671c0.958,0,1.761-0.534,2.231-1.294c0.152-0.243,0.252-0.506,0.324-0.793h1.232   c-0.118,0.935-0.488,1.788-1.059,2.481c-0.894,1.091-2.235,1.8-3.749,1.8h-0.183l-4.16,2.92L18.39,59.256z M65.986,12.472   c2.259,0,3.896,1.658,3.896,3.943v0.096v22.905c0,2.717-2.23,5.341-4.978,5.852l-23.162,4.3c-1.441,0.269-2.705-0.144-3.576-0.983   c-0.603-0.584-1-1.371-1.121-2.295h1.231c0.067,0.288,0.168,0.548,0.319,0.794c0.475,0.758,1.276,1.294,2.234,1.294   c1.469,0,2.674-1.2,2.674-2.672c0-1.471-1.205-2.673-2.674-2.673c-0.871,0-1.605,0.442-2.092,1.09   c-0.227,0.295-0.374,0.63-0.457,0.999h-1.297v-6.494h1.292c0.086,0.37,0.237,0.703,0.46,0.997c0.488,0.646,1.223,1.088,2.094,1.088   c1.469,0,2.669-1.197,2.669-2.669c0-1.471-1.2-2.672-2.669-2.672c-0.871,0-1.608,0.443-2.094,1.088   c-0.225,0.294-0.374,0.629-0.46,1h-1.292v-6.325h1.292c0.086,0.371,0.237,0.703,0.46,0.997c0.488,0.646,1.223,1.089,2.094,1.089   c1.469,0,2.669-1.198,2.669-2.67c0-1.471-1.2-2.67-2.669-2.67c-0.871,0-1.608,0.444-2.094,1.088   c-0.225,0.294-0.374,0.628-0.46,0.998h-1.292V23.98h1.292c0.086,0.371,0.237,0.703,0.46,0.997c0.488,0.645,1.223,1.089,2.094,1.089   c1.469,0,2.669-1.199,2.669-2.67c0-1.472-1.2-2.672-2.669-2.672c-0.917,0-1.684,0.486-2.159,1.184   c-0.191,0.274-0.322,0.57-0.4,0.905h-1.286v-0.27c0-1.137,0.397-2.245,1.043-3.197c0.914-1.341,2.324-2.364,3.924-2.652   l10.849-1.939l12.313-2.198C65.412,12.5,65.704,12.472,65.986,12.472z M39.445,45.113c0.229-0.538,0.766-0.921,1.386-0.921   c0.828,0,1.506,0.675,1.506,1.505c0,0.828-0.676,1.504-1.506,1.504c-0.62,0-1.157-0.381-1.386-0.92h1.386v-1.168H39.445z    M39.445,37.454c0.229-0.541,0.766-0.921,1.386-0.921c0.828,0,1.506,0.674,1.506,1.505c0,0.825-0.676,1.501-1.506,1.501   c-0.62,0-1.157-0.379-1.386-0.917h1.386v-1.168H39.445z M39.445,29.96c0.229-0.541,0.766-0.918,1.386-0.918   c0.828,0,1.506,0.675,1.506,1.502s-0.676,1.501-1.506,1.501c-0.62,0-1.157-0.377-1.386-0.917h1.386V29.96H39.445z M39.445,22.803   c0.229-0.536,0.766-0.919,1.386-0.919c0.828,0,1.506,0.675,1.506,1.503c0,0.83-0.676,1.502-1.506,1.502   c-0.62,0-1.157-0.377-1.386-0.918h1.386v-1.168H39.445z M33.357,23.971c-0.229,0.541-0.766,0.918-1.387,0.918   c-0.827,0-1.504-0.674-1.504-1.502c0-0.826,0.675-1.503,1.504-1.503c0.622,0,1.159,0.381,1.387,0.919H31.97v1.168H33.357z    M33.357,31.128c-0.229,0.54-0.766,0.917-1.387,0.917c-0.827,0-1.504-0.674-1.504-1.501s0.675-1.502,1.504-1.502   c0.622,0,1.159,0.377,1.387,0.918H31.97v1.168H33.357z M33.357,38.619c-0.229,0.536-0.766,0.917-1.387,0.917   c-0.827,0-1.504-0.675-1.504-1.501c0-0.83,0.675-1.504,1.504-1.504c0.622,0,1.159,0.38,1.387,0.92H31.97v1.168H33.357z    M33.357,46.281c-0.229,0.536-0.766,0.92-1.387,0.92c-0.827,0-1.504-0.676-1.504-1.504s0.675-1.505,1.504-1.505   c0.622,0,1.159,0.381,1.387,0.921H31.97v1.168H33.357z M55.48,21.068l-0.288-1.371l9.54-1.997l0.287,1.371L55.48,21.068z    M55.48,26.4l-0.288-1.371l9.54-2L65.02,24.4L55.48,26.4z M64.732,28.418l0.287,1.371l-19.074,4.001l-0.287-1.371L64.732,28.418z    M64.732,33.754l0.287,1.371l-19.074,3.996l-0.287-1.371L64.732,33.754z M64.732,39.138l0.287,1.37l-19.074,4.001l-0.287-1.373   L64.732,39.138z M49.395,20.502l-0.922,0.192l-2.678,8.128l0.821-0.17l0.816-0.171l0.497-1.644l2.87-0.604l0.511,1.432l0.835-0.175   l0.835-0.173l-2.676-7.007L49.395,20.502z M48.368,25.45l1.008-3.251l1.004,2.828L48.368,25.45z M13.569,38.731   c0,1.011-0.64,1.763-1.68,1.763c-0.98,0-1.651-0.757-1.651-1.763c0-1.038,0.699-1.764,1.68-1.764S13.569,37.693,13.569,38.731z    M19.371,38.731c0,1.011-0.642,1.763-1.685,1.763c-0.98,0-1.651-0.757-1.651-1.763c0-1.038,0.704-1.764,1.68-1.764   C18.696,36.968,19.371,37.693,19.371,38.731z M25.173,38.731c0,1.011-0.642,1.763-1.684,1.763c-0.984,0-1.651-0.757-1.651-1.763   c0-1.038,0.703-1.764,1.679-1.764C24.498,36.968,25.173,37.693,25.173,38.731z"/>

</svg>